<?xml version="1.0" standalone="no"?>
<!DOCTYPE svg PUBLIC "-//W3C//DTD SVG 20010904//EN"
 "http://www.w3.org/TR/2001/REC-SVG-20010904/DTD/svg10.dtd">
<svg version="1.0" xmlns="http://www.w3.org/2000/svg"
 width="25.000000pt" height="25.000000pt" viewBox="0 0 225.000000 225.000000"
 preserveAspectRatio="xMidYMid meet">

<g transform="translate(0.000000,225.000000) scale(0.100000,-0.100000)"
fill="#000000" stroke="none">
<path d="M1037 2096 c-81 -30 -135 -93 -212 -246 -21 -41 -51 -95 -68 -119
-53 -77 -153 -186 -191 -206 -35 -19 -36 -19 -68 0 -27 16 -57 20 -171 23
-192 6 -240 -2 -286 -43 l-36 -33 0 -555 0 -555 25 -27 c44 -48 75 -55 250
-55 142 0 167 3 211 21 47 21 50 21 101 4 28 -9 94 -38 147 -65 53 -26 128
-58 166 -70 88 -27 271 -38 370 -21 188 31 319 163 342 340 3 25 19 74 35 108
22 45 32 84 38 150 5 48 15 106 23 128 l15 40 129 5 c114 4 134 8 184 33 70
34 142 109 177 185 22 48 27 70 26 143 0 77 -3 94 -32 152 -37 74 -105 142
-180 179 -45 22 -59 23 -284 26 l-238 3 0 90 c0 177 -80 295 -236 350 -74 26
-188 34 -237 15z m196 -223 c92 -54 93 -182 3 -332 -18 -31 -37 -66 -40 -78
l-7 -22 368 -3 c359 -3 369 -4 403 -25 20 -12 46 -41 59 -63 41 -73 13 -166
-62 -208 -27 -14 -66 -18 -248 -20 l-217 -3 15 -29 c33 -67 24 -153 -21 -207
-19 -22 -22 -33 -14 -47 26 -47 -6 -187 -47 -203 -11 -4 -15 -23 -15 -72 0
-90 -28 -147 -90 -181 -39 -21 -61 -25 -156 -28 -139 -5 -191 8 -366 90 -73
34 -155 67 -183 73 l-50 12 -3 387 c-2 304 0 387 10 390 78 23 117 45 180 105
102 96 188 208 248 324 29 56 64 117 78 136 24 32 27 33 74 28 28 -4 64 -14
81 -24z m-903 -1218 c98 -51 59 -195 -52 -195 -105 0 -139 145 -46 197 31 17
63 16 98 -2z"/>
</g>
</svg>
